<svg aria-hidden="true" style="position: absolute; width: 0; height: 0; overflow: hidden;" version="1.1" xmlns="http://www.w3.org/2000/svg" xmlns:xlink="http://www.w3.org/1999/xlink">
<defs>
<symbol id="icon-price-tag" viewBox="0 0 32 32">
<title>price-tag</title>
<path d="M30.5 0h-12c-0.825 0-1.977 0.477-2.561 1.061l-14.879 14.879c-0.583 0.583-0.583 1.538 0 2.121l12.879 12.879c0.583 0.583 1.538 0.583 2.121 0l14.879-14.879c0.583-0.583 1.061-1.736 1.061-2.561v-12c0-0.825-0.675-1.5-1.5-1.5zM23 12c-1.657 0-3-1.343-3-3s1.343-3 3-3 3 1.343 3 3-1.343 3-3 3z"></path>
</symbol>
<symbol id="icon-location2" viewBox="0 0 32 32">
<title>location2</title>
<path d="M16 0c-5.523 0-10 4.477-10 10 0 10 10 22 10 22s10-12 10-22c0-5.523-4.477-10-10-10zM16 16.125c-3.383 0-6.125-2.742-6.125-6.125s2.742-6.125 6.125-6.125 6.125 2.742 6.125 6.125-2.742 6.125-6.125 6.125zM12.125 10c0-2.14 1.735-3.875 3.875-3.875s3.875 1.735 3.875 3.875c0 2.14-1.735 3.875-3.875 3.875s-3.875-1.735-3.875-3.875z"></path>
</symbol>
<symbol id="icon-map" viewBox="0 0 32 32">
<title>map</title>
<path d="M0 6l10-4v24l-10 4z"></path>
<path d="M12 1l10 6v23l-10-5z"></path>
<path d="M24 7l8-6v24l-8 6z"></path>
</symbol>
<symbol id="icon-alarm" viewBox="0 0 32 32">
<title>alarm</title>
<path d="M16 4c-7.732 0-14 6.268-14 14s6.268 14 14 14 14-6.268 14-14-6.268-14-14-14zM16 29.25c-6.213 0-11.25-5.037-11.25-11.25s5.037-11.25 11.25-11.25c6.213 0 11.25 5.037 11.25 11.25s-5.037 11.25-11.25 11.25zM29.212 8.974c0.501-0.877 0.788-1.892 0.788-2.974 0-3.314-2.686-6-6-6-1.932 0-3.65 0.913-4.747 2.331 4.121 0.851 7.663 3.287 9.96 6.643v0zM12.748 2.331c-1.097-1.418-2.816-2.331-4.748-2.331-3.314 0-6 2.686-6 6 0 1.082 0.287 2.098 0.788 2.974 2.297-3.356 5.838-5.792 9.96-6.643z"></path>
<path d="M16 18v-8h-2v10h8v-2z"></path>
</symbol>
<symbol id="icon-stopwatch" viewBox="0 0 32 32">
<title>stopwatch</title>
<path d="M16 6.038v-2.038h4v-2c0-1.105-0.895-2-2-2h-6c-1.105 0-2 0.895-2 2v2h4v2.038c-6.712 0.511-12 6.119-12 12.962 0 7.18 5.82 13 13 13s13-5.82 13-13c0-6.843-5.288-12.451-12-12.962zM22.071 26.071c-1.889 1.889-4.4 2.929-7.071 2.929s-5.182-1.040-7.071-2.929c-1.889-1.889-2.929-4.4-2.929-7.071s1.040-5.182 2.929-7.071c1.814-1.814 4.201-2.844 6.754-2.923l-0.677 9.813c-0.058 0.822 0.389 1.181 0.995 1.181s1.053-0.36 0.995-1.181l-0.677-9.813c2.552 0.079 4.94 1.11 6.754 2.923 1.889 1.889 2.929 4.4 2.929 7.071s-1.040 5.182-2.929 7.071z"></path>
</symbol>
<symbol id="icon-bubble" viewBox="0 0 32 32">
<title>bubble</title>
<path d="M16 2c8.837 0 16 5.82 16 13s-7.163 13-16 13c-0.849 0-1.682-0.054-2.495-0.158-3.437 3.437-7.539 4.053-11.505 4.144v-0.841c2.142-1.049 4-2.961 4-5.145 0-0.305-0.024-0.604-0.068-0.897-3.619-2.383-5.932-6.024-5.932-10.103 0-7.18 7.163-13 16-13z"></path>
</symbol>
<symbol id="icon-bubbles2" viewBox="0 0 36 32">
<title>bubbles2</title>
<path d="M15 0v0c8.284 0 15 5.435 15 12.139s-6.716 12.139-15 12.139c-0.796 0-1.576-0.051-2.339-0.147-3.222 3.209-6.943 3.785-10.661 3.869v-0.785c2.008-0.98 3.625-2.765 3.625-4.804 0-0.285-0.022-0.564-0.063-0.837-3.392-2.225-5.562-5.625-5.562-9.434 0-6.704 6.716-12.139 15-12.139zM31.125 27.209c0 1.748 1.135 3.278 2.875 4.118v0.673c-3.223-0.072-6.181-0.566-8.973-3.316-0.661 0.083-1.337 0.126-2.027 0.126-2.983 0-5.732-0.805-7.925-2.157 4.521-0.016 8.789-1.464 12.026-4.084 1.631-1.32 2.919-2.87 3.825-4.605 0.961-1.84 1.449-3.799 1.449-5.825 0-0.326-0.014-0.651-0.039-0.974 2.268 1.873 3.664 4.426 3.664 7.24 0 3.265-1.88 6.179-4.82 8.086-0.036 0.234-0.055 0.474-0.055 0.718z"></path>
</symbol>
<symbol id="icon-bubble2" viewBox="0 0 32 32">
<title>bubble2</title>
<path d="M16 6c-1.717 0-3.375 0.271-4.928 0.804-1.46 0.502-2.76 1.211-3.863 2.108-2.069 1.681-3.209 3.843-3.209 6.088 0 1.259 0.35 2.481 1.039 3.63 0.711 1.185 1.781 2.268 3.093 3.133 0.949 0.625 1.587 1.623 1.755 2.747 0.056 0.375 0.091 0.753 0.105 1.129 0.233-0.194 0.461-0.401 0.684-0.624 0.755-0.755 1.774-1.172 2.828-1.172 0.168 0 0.336 0.011 0.505 0.032 0.655 0.083 1.325 0.126 1.99 0.126 1.717 0 3.375-0.271 4.928-0.804 1.46-0.502 2.76-1.211 3.863-2.108 2.069-1.681 3.209-3.843 3.209-6.088s-1.14-4.407-3.209-6.088c-1.104-0.897-2.404-1.606-3.863-2.108-1.553-0.534-3.211-0.804-4.928-0.804zM16 2v0c8.837 0 16 5.82 16 13s-7.163 13-16 13c-0.849 0-1.682-0.054-2.495-0.158-3.437 3.437-7.539 4.053-11.505 4.144v-0.841c2.142-1.049 4-2.961 4-5.145 0-0.305-0.024-0.604-0.068-0.897-3.619-2.383-5.932-6.024-5.932-10.103 0-7.18 7.163-13 16-13z"></path>
</symbol>
<symbol id="icon-bubbles3" viewBox="0 0 36 32">
<title>bubbles3</title>
<path d="M34 28.161c0 1.422 0.813 2.653 2 3.256v0.498c-0.332 0.045-0.671 0.070-1.016 0.070-2.125 0-4.042-0.892-5.398-2.321-0.819 0.218-1.688 0.336-2.587 0.336-4.971 0-9-3.582-9-8s4.029-8 9-8c4.971 0 9 3.582 9 8 0 1.73-0.618 3.331-1.667 4.64-0.213 0.463-0.333 0.979-0.333 1.522zM7.209 6.912c-2.069 1.681-3.209 3.843-3.209 6.088 0 1.259 0.35 2.481 1.039 3.63 0.711 1.185 1.781 2.268 3.093 3.133 0.949 0.625 1.587 1.623 1.755 2.747 0.056 0.375 0.091 0.753 0.105 1.129 0.233-0.194 0.461-0.401 0.684-0.624 0.755-0.755 1.774-1.172 2.828-1.172 0.168 0 0.336 0.011 0.505 0.032 0.655 0.083 1.323 0.125 1.987 0.126v4c-0.848-0-1.68-0.054-2.492-0.158-3.437 3.437-7.539 4.053-11.505 4.144v-0.841c2.142-1.049 4-2.961 4-5.145 0-0.305-0.024-0.604-0.068-0.897-3.619-2.383-5.932-6.024-5.932-10.103 0-7.18 7.163-13 16-13 8.702 0 15.781 5.644 15.995 12.672-1.284-0.572-2.683-0.919-4.133-1.018-0.36-1.752-1.419-3.401-3.070-4.742-1.104-0.897-2.404-1.606-3.863-2.108-1.553-0.534-3.211-0.804-4.928-0.804s-3.375 0.271-4.928 0.804c-1.46 0.502-2.76 1.211-3.863 2.108z"></path>
</symbol>
<symbol id="icon-search" viewBox="0 0 32 32">
<title>search</title>
<path d="M31.008 27.231l-7.58-6.447c-0.784-0.705-1.622-1.029-2.299-0.998 1.789-2.096 2.87-4.815 2.87-7.787 0-6.627-5.373-12-12-12s-12 5.373-12 12 5.373 12 12 12c2.972 0 5.691-1.081 7.787-2.87-0.031 0.677 0.293 1.515 0.998 2.299l6.447 7.58c1.104 1.226 2.907 1.33 4.007 0.23s0.997-2.903-0.23-4.007zM12 20c-4.418 0-8-3.582-8-8s3.582-8 8-8 8 3.582 8 8-3.582 8-8 8z"></path>
</symbol>
<symbol id="icon-wrench" viewBox="0 0 32 32">
<title>wrench</title>
<path d="M31.342 25.559l-14.392-12.336c0.67-1.259 1.051-2.696 1.051-4.222 0-4.971-4.029-9-9-9-0.909 0-1.787 0.135-2.614 0.386l5.2 5.2c0.778 0.778 0.778 2.051 0 2.828l-3.172 3.172c-0.778 0.778-2.051 0.778-2.828 0l-5.2-5.2c-0.251 0.827-0.386 1.705-0.386 2.614 0 4.971 4.029 9 9 9 1.526 0 2.963-0.38 4.222-1.051l12.336 14.392c0.716 0.835 1.938 0.882 2.716 0.104l3.172-3.172c0.778-0.778 0.731-2-0.104-2.716z"></path>
</symbol>
<symbol id="icon-equalizer" viewBox="0 0 32 32">
<title>equalizer</title>
<path d="M14 4v-0.5c0-0.825-0.675-1.5-1.5-1.5h-5c-0.825 0-1.5 0.675-1.5 1.5v0.5h-6v4h6v0.5c0 0.825 0.675 1.5 1.5 1.5h5c0.825 0 1.5-0.675 1.5-1.5v-0.5h18v-4h-18zM8 8v-4h4v4h-4zM26 13.5c0-0.825-0.675-1.5-1.5-1.5h-5c-0.825 0-1.5 0.675-1.5 1.5v0.5h-18v4h18v0.5c0 0.825 0.675 1.5 1.5 1.5h5c0.825 0 1.5-0.675 1.5-1.5v-0.5h6v-4h-6v-0.5zM20 18v-4h4v4h-4zM14 23.5c0-0.825-0.675-1.5-1.5-1.5h-5c-0.825 0-1.5 0.675-1.5 1.5v0.5h-6v4h6v0.5c0 0.825 0.675 1.5 1.5 1.5h5c0.825 0 1.5-0.675 1.5-1.5v-0.5h18v-4h-18v-0.5zM8 28v-4h4v4h-4z"></path>
</symbol>
<symbol id="icon-equalizer2" viewBox="0 0 32 32">
<title>equalizer2</title>
<path d="M28 14h0.5c0.825 0 1.5-0.675 1.5-1.5v-5c0-0.825-0.675-1.5-1.5-1.5h-0.5v-6h-4v6h-0.5c-0.825 0-1.5 0.675-1.5 1.5v5c0 0.825 0.675 1.5 1.5 1.5h0.5v18h4v-18zM24 8h4v4h-4v-4zM18.5 26c0.825 0 1.5-0.675 1.5-1.5v-5c0-0.825-0.675-1.5-1.5-1.5h-0.5v-18h-4v18h-0.5c-0.825 0-1.5 0.675-1.5 1.5v5c0 0.825 0.675 1.5 1.5 1.5h0.5v6h4v-6h0.5zM14 20h4v4h-4v-4zM8.5 14c0.825 0 1.5-0.675 1.5-1.5v-5c0-0.825-0.675-1.5-1.5-1.5h-0.5v-6h-4v6h-0.5c-0.825 0-1.5 0.675-1.5 1.5v5c0 0.825 0.675 1.5 1.5 1.5h0.5v18h4v-18h0.5zM4 8h4v4h-4v-4z"></path>
</symbol>
<symbol id="icon-cog" viewBox="0 0 32 32">
<title>cog</title>
<path d="M29.181 19.070c-1.679-2.908-0.669-6.634 2.255-8.328l-3.145-5.447c-0.898 0.527-1.943 0.829-3.058 0.829-3.361 0-6.085-2.742-6.085-6.125h-6.289c0.008 1.044-0.252 2.103-0.811 3.070-1.679 2.908-5.411 3.897-8.339 2.211l-3.144 5.447c0.905 0.515 1.689 1.268 2.246 2.234 1.676 2.903 0.672 6.623-2.241 8.319l3.145 5.447c0.895-0.522 1.935-0.82 3.044-0.82 3.35 0 6.067 2.725 6.084 6.092h6.289c-0.003-1.034 0.259-2.080 0.811-3.038 1.676-2.903 5.399-3.894 8.325-2.219l3.145-5.447c-0.899-0.515-1.678-1.266-2.232-2.226zM16 22.479c-3.578 0-6.479-2.901-6.479-6.479s2.901-6.479 6.479-6.479c3.578 0 6.479 2.901 6.479 6.479s-2.901 6.479-6.479 6.479z"></path>
</symbol>
<symbol id="icon-bin" viewBox="0 0 32 32">
<title>bin</title>
<path d="M4 10v20c0 1.1 0.9 2 2 2h18c1.1 0 2-0.9 2-2v-20h-22zM10 28h-2v-14h2v14zM14 28h-2v-14h2v14zM18 28h-2v-14h2v14zM22 28h-2v-14h2v14z"></path>
<path d="M26.5 4h-6.5v-2.5c0-0.825-0.675-1.5-1.5-1.5h-7c-0.825 0-1.5 0.675-1.5 1.5v2.5h-6.5c-0.825 0-1.5 0.675-1.5 1.5v2.5h26v-2.5c0-0.825-0.675-1.5-1.5-1.5zM18 4h-6v-1.975h6v1.975z"></path>
</symbol>
<symbol id="icon-list" viewBox="0 0 32 32">
<title>list</title>
<path d="M0 0h8v8h-8zM12 2h20v4h-20zM0 12h8v8h-8zM12 14h20v4h-20zM0 24h8v8h-8zM12 26h20v4h-20z"></path>
</symbol>
<symbol id="icon-menu" viewBox="0 0 32 32">
<title>menu</title>
<path d="M2 6h28v6h-28zM2 14h28v6h-28zM2 22h28v6h-28z"></path>
</symbol>
<symbol id="icon-flag" viewBox="0 0 32 32">
<title>flag</title>
<path d="M0 0h4v32h-4v-32z"></path>
<path d="M26 20.094c2.582 0 4.83-0.625 6-1.547v-16c-1.17 0.922-3.418 1.547-6 1.547s-4.83-0.625-6-1.547v16c1.17 0.922 3.418 1.547 6 1.547z"></path>
<path d="M19 1.016c-1.466-0.623-3.61-1.016-6-1.016-3.012 0-5.635 0.625-7 1.547v16c1.365-0.922 3.988-1.547 7-1.547 2.39 0 4.534 0.393 6 1.016v-16z"></path>
</symbol>
<symbol id="icon-eye" viewBox="0 0 32 32">
<title>eye</title>
<path d="M16 6c-6.979 0-13.028 4.064-16 10 2.972 5.936 9.021 10 16 10s13.027-4.064 16-10c-2.972-5.936-9.021-10-16-10zM23.889 11.303c1.88 1.199 3.473 2.805 4.67 4.697-1.197 1.891-2.79 3.498-4.67 4.697-2.362 1.507-5.090 2.303-7.889 2.303s-5.527-0.796-7.889-2.303c-1.88-1.199-3.473-2.805-4.67-4.697 1.197-1.891 2.79-3.498 4.67-4.697 0.122-0.078 0.246-0.154 0.371-0.228-0.311 0.854-0.482 1.776-0.482 2.737 0 4.418 3.582 8 8 8s8-3.582 8-8c0-0.962-0.17-1.883-0.482-2.737 0.124 0.074 0.248 0.15 0.371 0.228v0zM16 13c0 1.657-1.343 3-3 3s-3-1.343-3-3 1.343-3 3-3 3 1.343 3 3z"></path>
</symbol>
<symbol id="icon-star-empty" viewBox="0 0 32 32">
<title>star-empty</title>
<path d="M32 12.408l-11.056-1.607-4.944-10.018-4.944 10.018-11.056 1.607 8 7.798-1.889 11.011 9.889-5.199 9.889 5.199-1.889-11.011 8-7.798zM16 23.547l-6.983 3.671 1.334-7.776-5.65-5.507 7.808-1.134 3.492-7.075 3.492 7.075 7.807 1.134-5.65 5.507 1.334 7.776-6.983-3.671z"></path>
</symbol>
<symbol id="icon-star-half" viewBox="0 0 32 32">
<title>star-half</title>
<path d="M32 12.408l-11.056-1.607-4.944-10.018-4.944 10.018-11.056 1.607 8 7.798-1.889 11.011 9.889-5.199 9.889 5.199-1.889-11.011 8-7.798zM16 23.547l-0.029 0.015 0.029-17.837 3.492 7.075 7.807 1.134-5.65 5.507 1.334 7.776-6.983-3.671z"></path>
</symbol>
<symbol id="icon-star-full" viewBox="0 0 32 32">
<title>star-full</title>
<path d="M32 12.408l-11.056-1.607-4.944-10.018-4.944 10.018-11.056 1.607 8 7.798-1.889 11.011 9.889-5.199 9.889 5.199-1.889-11.011 8-7.798z"></path>
</symbol>
<symbol id="icon-heart" viewBox="0 0 32 32">
<title>heart</title>
<path d="M23.6 2c-3.363 0-6.258 2.736-7.599 5.594-1.342-2.858-4.237-5.594-7.601-5.594-4.637 0-8.4 3.764-8.4 8.401 0 9.433 9.516 11.906 16.001 21.232 6.13-9.268 15.999-12.1 15.999-21.232 0-4.637-3.763-8.401-8.4-8.401z"></path>
</symbol>
<symbol id="icon-heart-broken" viewBox="0 0 32 32">
<title>heart-broken</title>
<path d="M23.6 2c4.637 0 8.4 3.764 8.4 8.401 0 9.132-9.87 11.964-15.999 21.232-6.485-9.326-16.001-11.799-16.001-21.232 0-4.637 3.763-8.401 8.4-8.401 1.886 0 3.625 0.86 5.025 2.12l-2.425 3.88 7 4-4 10 11-12-7-4 1.934-2.901c1.107-0.68 2.35-1.099 3.665-1.099z"></path>
</symbol>
<symbol id="icon-man" viewBox="0 0 32 32">
<title>man</title>
<path d="M18 3c0 1.657-1.343 3-3 3s-3-1.343-3-3c0-1.657 1.343-3 3-3s3 1.343 3 3z"></path>
<path d="M18 8h-6c-1.105 0-2 0.895-2 2v10h2v12h2.5v-12h1v12h2.5v-12h2v-10c0-1.105-0.895-2-2-2z"></path>
</symbol>
<symbol id="icon-woman" viewBox="0 0 32 32">
<title>woman</title>
<path d="M18 3c0 1.657-1.343 3-3 3s-3-1.343-3-3c0-1.657 1.343-3 3-3s3 1.343 3 3z"></path>
<path d="M22.469 16l1.531-1.109-4.165-6.441c-0.185-0.281-0.499-0.45-0.835-0.45h-8c-0.336 0-0.65 0.169-0.835 0.45l-4.165 6.441 1.531 1.109 3.458-4.487 1.202 2.804-4.191 7.683h3.833l0.667 10h2v-10h1v10h2l0.667-10h3.833l-4.191-7.683 1.202-2.804 3.458 4.487z"></path>
</symbol>
<symbol id="icon-man-woman" viewBox="0 0 32 32">
<title>man-woman</title>
<path d="M8 3c0 1.657-1.343 3-3 3s-3-1.343-3-3c0-1.657 1.343-3 3-3s3 1.343 3 3z"></path>
<path d="M26 3c0 1.657-1.343 3-3 3s-3-1.343-3-3c0-1.657 1.343-3 3-3s3 1.343 3 3z"></path>
<path d="M8 8h-6c-1.105 0-2 0.895-2 2v10h2v12h2.5v-12h1v12h2.5v-12h2v-10c0-1.105-0.895-2-2-2z"></path>
<path d="M30.469 16l1.531-1.109-4.165-6.441c-0.185-0.281-0.499-0.45-0.835-0.45h-8c-0.336 0-0.65 0.169-0.835 0.45l-4.165 6.441 1.531 1.109 3.458-4.487 1.202 2.804-4.191 7.683h3.833l0.667 10h2v-10h1v10h2l0.667-10h3.833l-4.191-7.683 1.202-2.804 3.458 4.487z"></path>
</symbol>
<symbol id="icon-plus" viewBox="0 0 32 32">
<title>plus</title>
<path d="M31 12h-11v-11c0-0.552-0.448-1-1-1h-6c-0.552 0-1 0.448-1 1v11h-11c-0.552 0-1 0.448-1 1v6c0 0.552 0.448 1 1 1h11v11c0 0.552 0.448 1 1 1h6c0.552 0 1-0.448 1-1v-11h11c0.552 0 1-0.448 1-1v-6c0-0.552-0.448-1-1-1z"></path>
</symbol>
<symbol id="icon-minus" viewBox="0 0 32 32">
<title>minus</title>
<path d="M0 13v6c0 0.552 0.448 1 1 1h30c0.552 0 1-0.448 1-1v-6c0-0.552-0.448-1-1-1h-30c-0.552 0-1 0.448-1 1z"></path>
</symbol>
<symbol id="icon-cross" viewBox="0 0 32 32">
<title>cross</title>
<path d="M31.708 25.708c-0-0-0-0-0-0l-9.708-9.708 9.708-9.708c0-0 0-0 0-0 0.105-0.105 0.18-0.227 0.229-0.357 0.133-0.356 0.057-0.771-0.229-1.057l-4.586-4.586c-0.286-0.286-0.702-0.361-1.057-0.229-0.13 0.048-0.252 0.124-0.357 0.228 0 0-0 0-0 0l-9.708 9.708-9.708-9.708c-0-0-0-0-0-0-0.105-0.104-0.227-0.18-0.357-0.228-0.356-0.133-0.771-0.057-1.057 0.229l-4.586 4.586c-0.286 0.286-0.361 0.702-0.229 1.057 0.049 0.13 0.124 0.252 0.229 0.357 0 0 0 0 0 0l9.708 9.708-9.708 9.708c-0 0-0 0-0 0-0.104 0.105-0.18 0.227-0.229 0.357-0.133 0.355-0.057 0.771 0.229 1.057l4.586 4.586c0.286 0.286 0.702 0.361 1.057 0.229 0.13-0.049 0.252-0.124 0.357-0.229 0-0 0-0 0-0l9.708-9.708 9.708 9.708c0 0 0 0 0 0 0.105 0.105 0.227 0.18 0.357 0.229 0.356 0.133 0.771 0.057 1.057-0.229l4.586-4.586c0.286-0.286 0.362-0.702 0.229-1.057-0.049-0.13-0.124-0.252-0.229-0.357z"></path>
</symbol>
<symbol id="icon-checkmark" viewBox="0 0 32 32">
<title>checkmark</title>
<path d="M27 4l-15 15-7-7-5 5 12 12 20-20z"></path>
</symbol>
<symbol id="icon-checkmark2" viewBox="0 0 32 32">
<title>checkmark2</title>
<path d="M12.42 28.678l-12.433-12.238 6.168-6.071 6.265 6.167 13.426-13.214 6.168 6.071-19.594 19.285zM3.372 16.441l9.048 8.905 16.208-15.953-2.782-2.739-13.426 13.214-6.265-6.167-2.782 2.739z"></path>
</symbol>
<symbol id="icon-enter" viewBox="0 0 32 32">
<title>enter</title>
<path d="M12 16h-10v-4h10v-4l6 6-6 6zM32 0v26l-12 6v-6h-12v-8h2v6h10v-18l8-4h-18v8h-2v-10z"></path>
</symbol>
<symbol id="icon-exit" viewBox="0 0 32 32">
<title>exit</title>
<path d="M24 20v-4h-10v-4h10v-4l6 6zM22 18v8h-10v6l-12-6v-26h22v10h-2v-8h-16l8 4v18h8v-6z"></path>
</symbol>
<symbol id="icon-checkbox-checked" viewBox="0 0 32 32">
<title>checkbox-checked</title>
<path d="M28 0h-24c-2.2 0-4 1.8-4 4v24c0 2.2 1.8 4 4 4h24c2.2 0 4-1.8 4-4v-24c0-2.2-1.8-4-4-4zM14 24.828l-7.414-7.414 2.828-2.828 4.586 4.586 9.586-9.586 2.828 2.828-12.414 12.414z"></path>
</symbol>
<symbol id="icon-checkbox-unchecked" viewBox="0 0 32 32">
<title>checkbox-unchecked</title>
<path d="M28 0h-24c-2.2 0-4 1.8-4 4v24c0 2.2 1.8 4 4 4h24c2.2 0 4-1.8 4-4v-24c0-2.2-1.8-4-4-4zM28 28h-24v-24h24v24z"></path>
</symbol>
<symbol id="icon-radio-checked" viewBox="0 0 32 32">
<title>radio-checked</title>
<path d="M16 0c-8.837 0-16 7.163-16 16s7.163 16 16 16 16-7.163 16-16-7.163-16-16-16zM16 28c-6.627 0-12-5.373-12-12s5.373-12 12-12c6.627 0 12 5.373 12 12s-5.373 12-12 12zM10 16c0-3.314 2.686-6 6-6s6 2.686 6 6c0 3.314-2.686 6-6 6s-6-2.686-6-6z"></path>
</symbol>
<symbol id="icon-radio-checked2" viewBox="0 0 32 32">
<title>radio-checked2</title>
<path d="M16 0c-8.837 0-16 7.163-16 16s7.163 16 16 16 16-7.163 16-16-7.163-16-16-16zM16 20c-2.209 0-4-1.791-4-4s1.791-4 4-4c2.209 0 4 1.791 4 4s-1.791 4-4 4z"></path>
</symbol>
<symbol id="icon-radio-unchecked" viewBox="0 0 32 32">
<title>radio-unchecked</title>
<path d="M16 0c-8.837 0-16 7.163-16 16s7.163 16 16 16 16-7.163 16-16-7.163-16-16-16zM16 28c-6.627 0-12-5.373-12-12s5.373-12 12-12c6.627 0 12 5.373 12 12s-5.373 12-12 12z"></path>
</symbol>
<symbol id="icon-embed" viewBox="0 0 32 32">
<title>embed</title>
<path d="M18 23l3 3 10-10-10-10-3 3 7 7z"></path>
<path d="M14 9l-3-3-10 10 10 10 3-3-7-7z"></path>
</symbol>
<symbol id="icon-embed2" viewBox="0 0 40 32">
<title>embed2</title>
<path d="M26 23l3 3 10-10-10-10-3 3 7 7z"></path>
<path d="M14 9l-3-3-10 10 10 10 3-3-7-7z"></path>
<path d="M21.916 4.704l2.171 0.592-6 22.001-2.171-0.592 6-22.001z"></path>
</symbol>
<symbol id="icon-share2" viewBox="0 0 32 32">
<title>share2</title>
<path d="M27 22c-1.411 0-2.685 0.586-3.594 1.526l-13.469-6.734c0.041-0.258 0.063-0.522 0.063-0.791s-0.022-0.534-0.063-0.791l13.469-6.734c0.909 0.94 2.183 1.526 3.594 1.526 2.761 0 5-2.239 5-5s-2.239-5-5-5-5 2.239-5 5c0 0.269 0.022 0.534 0.063 0.791l-13.469 6.734c-0.909-0.94-2.183-1.526-3.594-1.526-2.761 0-5 2.239-5 5s2.239 5 5 5c1.411 0 2.685-0.586 3.594-1.526l13.469 6.734c-0.041 0.258-0.063 0.522-0.063 0.791 0 2.761 2.239 5 5 5s5-2.239 5-5c0-2.761-2.239-5-5-5z"></path>
</symbol>
<symbol id="icon-google-plus3" viewBox="0 0 32 32">
<title>google-plus3</title>
<path d="M16 0c-8.838 0-16 7.162-16 16s7.162 16 16 16 16-7.163 16-16-7.163-16-16-16zM12 24c-4.425 0-8-3.575-8-8s3.575-8 8-8c2.162 0 3.969 0.787 5.363 2.094l-2.175 2.088c-0.594-0.569-1.631-1.231-3.188-1.231-2.731 0-4.963 2.263-4.963 5.050s2.231 5.050 4.963 5.050c3.169 0 4.356-2.275 4.538-3.45h-4.537v-2.744h7.556c0.069 0.4 0.125 0.8 0.125 1.325 0 4.575-3.063 7.819-7.681 7.819zM26 16v2h-2v-2h-2v-2h2v-2h2v2h2v2h-2z"></path>
</symbol>
<symbol id="icon-hangouts" viewBox="0 0 32 32">
<title>hangouts</title>
<path d="M15.994 0c-7.631 0-13.819 6.188-13.819 13.819 0 7.231 6.588 13.094 13.819 13.094v5.087c8.394-4.256 13.831-11.113 13.831-18.181 0-7.631-6.2-13.819-13.831-13.819zM14 16c0 1.656-0.894 3-2 3v-3h-4v-6h6v6zM24 16c0 1.656-0.894 3-2 3v-3h-4v-6h6v6z"></path>
</symbol>
<symbol id="icon-facebook" viewBox="0 0 32 32">
<title>facebook</title>
<path d="M19 6h5v-6h-5c-3.86 0-7 3.14-7 7v3h-4v6h4v16h6v-16h5l1-6h-6v-3c0-0.542 0.458-1 1-1z"></path>
</symbol>
<symbol id="icon-facebook2" viewBox="0 0 32 32">
<title>facebook2</title>
<path d="M29 0h-26c-1.65 0-3 1.35-3 3v26c0 1.65 1.35 3 3 3h13v-14h-4v-4h4v-2c0-3.306 2.694-6 6-6h4v4h-4c-1.1 0-2 0.9-2 2v2h6l-1 4h-5v14h9c1.65 0 3-1.35 3-3v-26c0-1.65-1.35-3-3-3z"></path>
</symbol>
<symbol id="icon-instagram" viewBox="0 0 32 32">
<title>instagram</title>
<path d="M16 2.881c4.275 0 4.781 0.019 6.462 0.094 1.563 0.069 2.406 0.331 2.969 0.55 0.744 0.288 1.281 0.638 1.837 1.194 0.563 0.563 0.906 1.094 1.2 1.838 0.219 0.563 0.481 1.412 0.55 2.969 0.075 1.688 0.094 2.194 0.094 6.463s-0.019 4.781-0.094 6.463c-0.069 1.563-0.331 2.406-0.55 2.969-0.288 0.744-0.637 1.281-1.194 1.837-0.563 0.563-1.094 0.906-1.837 1.2-0.563 0.219-1.413 0.481-2.969 0.55-1.688 0.075-2.194 0.094-6.463 0.094s-4.781-0.019-6.463-0.094c-1.563-0.069-2.406-0.331-2.969-0.55-0.744-0.288-1.281-0.637-1.838-1.194-0.563-0.563-0.906-1.094-1.2-1.837-0.219-0.563-0.481-1.413-0.55-2.969-0.075-1.688-0.094-2.194-0.094-6.463s0.019-4.781 0.094-6.463c0.069-1.563 0.331-2.406 0.55-2.969 0.288-0.744 0.638-1.281 1.194-1.838 0.563-0.563 1.094-0.906 1.838-1.2 0.563-0.219 1.412-0.481 2.969-0.55 1.681-0.075 2.188-0.094 6.463-0.094zM16 0c-4.344 0-4.887 0.019-6.594 0.094-1.7 0.075-2.869 0.35-3.881 0.744-1.056 0.412-1.95 0.956-2.837 1.85-0.894 0.888-1.438 1.781-1.85 2.831-0.394 1.019-0.669 2.181-0.744 3.881-0.075 1.713-0.094 2.256-0.094 6.6s0.019 4.887 0.094 6.594c0.075 1.7 0.35 2.869 0.744 3.881 0.413 1.056 0.956 1.95 1.85 2.837 0.887 0.887 1.781 1.438 2.831 1.844 1.019 0.394 2.181 0.669 3.881 0.744 1.706 0.075 2.25 0.094 6.594 0.094s4.888-0.019 6.594-0.094c1.7-0.075 2.869-0.35 3.881-0.744 1.050-0.406 1.944-0.956 2.831-1.844s1.438-1.781 1.844-2.831c0.394-1.019 0.669-2.181 0.744-3.881 0.075-1.706 0.094-2.25 0.094-6.594s-0.019-4.887-0.094-6.594c-0.075-1.7-0.35-2.869-0.744-3.881-0.394-1.063-0.938-1.956-1.831-2.844-0.887-0.887-1.781-1.438-2.831-1.844-1.019-0.394-2.181-0.669-3.881-0.744-1.712-0.081-2.256-0.1-6.6-0.1v0z"></path>
<path d="M16 7.781c-4.537 0-8.219 3.681-8.219 8.219s3.681 8.219 8.219 8.219 8.219-3.681 8.219-8.219c0-4.537-3.681-8.219-8.219-8.219zM16 21.331c-2.944 0-5.331-2.387-5.331-5.331s2.387-5.331 5.331-5.331c2.944 0 5.331 2.387 5.331 5.331s-2.387 5.331-5.331 5.331z"></path>
<path d="M26.462 7.456c0 1.060-0.859 1.919-1.919 1.919s-1.919-0.859-1.919-1.919c0-1.060 0.859-1.919 1.919-1.919s1.919 0.859 1.919 1.919z"></path>
</symbol>
<symbol id="icon-twitter" viewBox="0 0 32 32">
<title>twitter</title>
<path d="M32 7.075c-1.175 0.525-2.444 0.875-3.769 1.031 1.356-0.813 2.394-2.1 2.887-3.631-1.269 0.75-2.675 1.3-4.169 1.594-1.2-1.275-2.906-2.069-4.794-2.069-3.625 0-6.563 2.938-6.563 6.563 0 0.512 0.056 1.012 0.169 1.494-5.456-0.275-10.294-2.888-13.531-6.862-0.563 0.969-0.887 2.1-0.887 3.3 0 2.275 1.156 4.287 2.919 5.463-1.075-0.031-2.087-0.331-2.975-0.819 0 0.025 0 0.056 0 0.081 0 3.181 2.263 5.838 5.269 6.437-0.55 0.15-1.131 0.231-1.731 0.231-0.425 0-0.831-0.044-1.237-0.119 0.838 2.606 3.263 4.506 6.131 4.563-2.25 1.762-5.075 2.813-8.156 2.813-0.531 0-1.050-0.031-1.569-0.094 2.913 1.869 6.362 2.95 10.069 2.95 12.075 0 18.681-10.006 18.681-18.681 0-0.287-0.006-0.569-0.019-0.85 1.281-0.919 2.394-2.075 3.275-3.394z"></path>
</symbol>
<symbol id="icon-youtube" viewBox="0 0 32 32">
<title>youtube</title>
<path d="M31.681 9.6c0 0-0.313-2.206-1.275-3.175-1.219-1.275-2.581-1.281-3.206-1.356-4.475-0.325-11.194-0.325-11.194-0.325h-0.012c0 0-6.719 0-11.194 0.325-0.625 0.075-1.987 0.081-3.206 1.356-0.963 0.969-1.269 3.175-1.269 3.175s-0.319 2.588-0.319 5.181v2.425c0 2.587 0.319 5.181 0.319 5.181s0.313 2.206 1.269 3.175c1.219 1.275 2.819 1.231 3.531 1.369 2.563 0.244 10.881 0.319 10.881 0.319s6.725-0.012 11.2-0.331c0.625-0.075 1.988-0.081 3.206-1.356 0.962-0.969 1.275-3.175 1.275-3.175s0.319-2.587 0.319-5.181v-2.425c-0.006-2.588-0.325-5.181-0.325-5.181zM12.694 20.15v-8.994l8.644 4.513-8.644 4.481z"></path>
</symbol>
<symbol id="icon-github" viewBox="0 0 32 32">
<title>github</title>
<path d="M16 0.395c-8.836 0-16 7.163-16 16 0 7.069 4.585 13.067 10.942 15.182 0.8 0.148 1.094-0.347 1.094-0.77 0-0.381-0.015-1.642-0.022-2.979-4.452 0.968-5.391-1.888-5.391-1.888-0.728-1.849-1.776-2.341-1.776-2.341-1.452-0.993 0.11-0.973 0.11-0.973 1.606 0.113 2.452 1.649 2.452 1.649 1.427 2.446 3.743 1.739 4.656 1.33 0.143-1.034 0.558-1.74 1.016-2.14-3.554-0.404-7.29-1.777-7.29-7.907 0-1.747 0.625-3.174 1.649-4.295-0.166-0.403-0.714-2.030 0.155-4.234 0 0 1.344-0.43 4.401 1.64 1.276-0.355 2.645-0.532 4.005-0.539 1.359 0.006 2.729 0.184 4.008 0.539 3.054-2.070 4.395-1.64 4.395-1.64 0.871 2.204 0.323 3.831 0.157 4.234 1.026 1.12 1.647 2.548 1.647 4.295 0 6.145-3.743 7.498-7.306 7.895 0.574 0.497 1.085 1.47 1.085 2.963 0 2.141-0.019 3.864-0.019 4.391 0 0.426 0.288 0.925 1.099 0.768 6.354-2.118 10.933-8.113 10.933-15.18 0-8.837-7.164-16-16-16z"></path>
</symbol>
<symbol id="icon-tumblr2" viewBox="0 0 32 32">
<title>tumblr2</title>
<path d="M29 0h-26c-1.65 0-3 1.35-3 3v26c0 1.65 1.35 3 3 3h26c1.65 0 3-1.35 3-3v-26c0-1.65-1.35-3-3-3zM22.869 25.769c-0.944 0.444-1.8 0.756-2.563 0.938-0.762 0.175-1.594 0.269-2.481 0.269-1.012 0-1.606-0.125-2.381-0.381s-1.438-0.619-1.988-1.087c-0.55-0.475-0.925-0.975-1.137-1.506s-0.319-1.3-0.319-2.313v-7.744h-3v-3.125c0.869-0.281 1.875-0.688 2.488-1.213 0.619-0.525 1.119-1.156 1.488-1.894 0.375-0.737 0.631-1.675 0.775-2.813h3.138v5.1h5.113v3.944h-5.106v5.662c0 1.281-0.019 2.019 0.119 2.381s0.475 0.738 0.844 0.95c0.488 0.294 1.050 0.438 1.675 0.438 1.119 0 2.231-0.363 3.337-1.087v3.481z"></path>
</symbol>
<symbol id="icon-linkedin" viewBox="0 0 32 32">
<title>linkedin</title>
<path d="M29 0h-26c-1.65 0-3 1.35-3 3v26c0 1.65 1.35 3 3 3h26c1.65 0 3-1.35 3-3v-26c0-1.65-1.35-3-3-3zM12 26h-4v-14h4v14zM10 10c-1.106 0-2-0.894-2-2s0.894-2 2-2c1.106 0 2 0.894 2 2s-0.894 2-2 2zM26 26h-4v-8c0-1.106-0.894-2-2-2s-2 0.894-2 2v8h-4v-14h4v2.481c0.825-1.131 2.087-2.481 3.5-2.481 2.488 0 4.5 2.238 4.5 5v9z"></path>
</symbol>
<symbol id="icon-linkedin2" viewBox="0 0 32 32">
<title>linkedin2</title>
<path d="M12 12h5.535v2.837h0.079c0.77-1.381 2.655-2.837 5.464-2.837 5.842 0 6.922 3.637 6.922 8.367v9.633h-5.769v-8.54c0-2.037-0.042-4.657-3.001-4.657-3.005 0-3.463 2.218-3.463 4.509v8.688h-5.767v-18z"></path>
<path d="M2 12h6v18h-6v-18z"></path>
<path d="M8 7c0 1.657-1.343 3-3 3s-3-1.343-3-3c0-1.657 1.343-3 3-3s3 1.343 3 3z"></path>
</symbol>
<symbol id="icon-stackoverflow" viewBox="0 0 32 32">
<title>stackoverflow</title>
<path d="M32 20v12h-32v-12h4v8h24v-8zM6 22h20v4h-20zM6.473 17.671l0.866-3.905 19.526 4.328-0.866 3.905zM8.739 9.642l1.69-3.625 18.126 8.452-1.69 3.625zM30.991 11.296l-2.435 3.173-15.867-12.175 1.761-2.294h1.82z"></path>
</symbol>
<symbol id="icon-chrome" viewBox="0 0 32 32">
<title>chrome</title>
<path d="M8.071 13.954l-4.579-7.931c2.932-3.671 7.445-6.023 12.508-6.023 5.857 0 10.978 3.148 13.767 7.844h-13.055c-0.235-0.020-0.472-0.031-0.711-0.031-3.809 0-7.018 2.614-7.929 6.142zM21.728 10.156h9.171c0.711 1.81 1.101 3.781 1.101 5.844 0 8.776-7.066 15.9-15.818 15.998l6.544-11.334c0.921-1.324 1.462-2.932 1.462-4.664 0-2.287-0.943-4.357-2.459-5.844zM10.188 16c0-3.205 2.607-5.813 5.813-5.813s5.813 2.607 5.813 5.813c0 3.205-2.608 5.813-5.813 5.813s-5.813-2.608-5.813-5.813zM18.193 23.889l-4.581 7.934c-7.704-1.153-13.613-7.797-13.613-15.822 0-2.851 0.746-5.526 2.053-7.845l6.532 11.314c1.308 2.785 4.14 4.718 7.415 4.718 0.759 0 1.495-0.104 2.193-0.299z"></path>
</symbol>
<symbol id="icon-IE" viewBox="0 0 32 32">
<title>IE</title>
<path d="M22.944 19.651h7.377c0.057-0.512 0.080-1.034 0.080-1.569 0-2.507-0.673-4.858-1.848-6.883 1.215-3.228 1.172-5.968-0.455-7.606-1.547-1.54-5.697-1.29-10.388 0.787-0.347-0.026-0.697-0.040-1.051-0.040-6.439 0-11.841 4.431-13.335 10.402 2.020-2.586 4.145-4.461 6.984-5.826-0.258 0.242-1.764 1.739-2.018 1.993-7.486 7.484-9.847 17.26-7.306 19.8 1.931 1.93 5.43 1.604 9.449-0.364 1.869 0.952 3.984 1.488 6.226 1.488 6.035 0 11.15-3.885 13.003-9.295h-7.433c-1.023 1.887-3.023 3.171-5.319 3.171s-4.296-1.284-5.319-3.171c-0.455-0.852-0.716-1.83-0.716-2.864v-0.023h12.071zM10.884 16.025c0.171-3.035 2.694-5.456 5.774-5.456s5.604 2.421 5.774 5.456h-11.548zM28.030 5.119c1.048 1.059 1.021 3.007 0.125 5.438-1.535-2.341-3.766-4.186-6.4-5.239 2.816-1.207 5.106-1.367 6.274-0.199zM2.921 30.227c-1.337-1.337-0.934-4.144 0.788-7.526 1.072 3.008 3.161 5.534 5.854 7.161-2.982 1.354-5.423 1.584-6.643 0.365z"></path>
</symbol>
</defs>
</svg>
